<?xml version="1.0" encoding="UTF-8"?>
<svg version="1.1" xmlns="http://www.w3.org/2000/svg" width="96" height="96">
<path d="M0 0 C2.5546875 1.7578125 2.5546875 1.7578125 4.875 4.125 C6.04675781 5.27355469 6.04675781 5.27355469 7.2421875 6.4453125 C9.4878844 9.70905865 9.56288853 11.0899034 9 15 C7.16417684 17.35975387 5.46075626 19.24215758 3.3125 21.2734375 C2.73540283 21.84204498 2.15830566 22.41065247 1.5637207 22.99649048 C-0.27722123 24.80392737 -2.13793408 26.58935857 -4 28.375 C-5.2539678 29.5988648 -6.50658907 30.82411087 -7.7578125 32.05078125 C-10.82316496 35.05008794 -13.90641687 38.02983109 -17 41 C-15.4150377 44.98997542 -12.61326098 47.54432326 -9.5546875 50.4296875 C-8.46687269 51.48247887 -7.37965086 52.53588325 -6.29296875 53.58984375 C-4.58299136 55.23785475 -2.86891428 56.88075954 -1.14404297 58.51318359 C0.52438664 60.09683431 2.1732288 61.69888693 3.8203125 63.3046875 C4.33900909 63.78614227 4.85770569 64.26759705 5.39212036 64.76364136 C7.90581679 67.24070386 8.95337129 68.65627081 9.43359375 72.19628906 C8.86343237 75.88307582 7.51978806 77.28258398 4.875 79.875 C3.72644531 81.04675781 3.72644531 81.04675781 2.5546875 82.2421875 C-0.63933541 84.43990969 -2.18228511 84.40266412 -6 84 C-8.20211792 82.55978394 -8.20211792 82.55978394 -10.26123047 80.51513672 C-11.04158661 79.75369354 -11.82194275 78.99225037 -12.62594604 78.20773315 C-13.85911057 76.95635056 -13.85911057 76.95635056 -15.1171875 75.6796875 C-15.97434357 74.82827179 -16.83149963 73.97685608 -17.71463013 73.09963989 C-19.52221966 71.29613195 -21.32225952 69.48503013 -23.11523438 67.66699219 C-25.86481956 64.88529932 -28.64489874 62.13702325 -31.4296875 59.390625 C-33.18161455 57.63473309 -34.93167945 55.87698085 -36.6796875 54.1171875 C-37.51394257 53.29507782 -38.34819763 52.47296814 -39.20773315 51.62594604 C-39.96917633 50.8455899 -40.73061951 50.06523376 -41.51513672 49.26123047 C-42.1898703 48.58172333 -42.86460388 47.90221619 -43.55978394 47.20211792 C-45.49940327 44.23640284 -45.50547809 42.48119087 -45 39 C-43.55978394 36.79788208 -43.55978394 36.79788208 -41.51513672 34.73876953 C-40.37297195 33.56823532 -40.37297195 33.56823532 -39.20773315 32.37405396 C-38.37347809 31.55194427 -37.53922302 30.72983459 -36.6796875 29.8828125 C-35.82827179 29.02565643 -34.97685608 28.16850037 -34.09963989 27.28536987 C-32.29613195 25.47778034 -30.48503013 23.67774048 -28.66699219 21.88476562 C-25.88529932 19.13518044 -23.13702325 16.35510126 -20.390625 13.5703125 C-18.63473309 11.81838545 -16.87698085 10.06832055 -15.1171875 8.3203125 C-13.88402298 7.0689299 -13.88402298 7.0689299 -12.62594604 5.79226685 C-11.8455899 5.03082367 -11.06523376 4.26938049 -10.26123047 3.48486328 C-9.58172333 2.8101297 -8.90221619 2.13539612 -8.20211792 1.44021606 C-5.29369153 -0.46193566 -3.41104057 -0.38629605 0 0 Z " fill="#27AEE8" transform="translate(63,6)"/>
<path d="M0 0 C4.02700345 1.6247623 6.81573596 4.45865019 9.859375 7.453125 C10.40861633 7.99096619 10.95785767 8.52880737 11.52374268 9.08294678 C12.67958926 10.21994826 13.83259054 11.35984854 14.98291016 12.50244141 C16.74426152 14.24432494 18.52577403 15.96372601 20.30859375 17.68359375 C21.43100041 18.79294404 22.55213844 19.90357967 23.671875 21.015625 C24.20617126 21.52522766 24.74046753 22.03483032 25.29095459 22.55987549 C27.81089085 25.11083083 28.9475369 26.61922315 29.44287109 30.21435547 C28.85957025 33.88329847 27.50919669 35.29296562 24.875 37.875 C23.72644531 39.04675781 23.72644531 39.04675781 22.5546875 40.2421875 C19.26520238 42.5055947 17.94402575 42.61007678 14 42 C11.37062378 40.19739467 9.26150596 37.9599052 7.0703125 35.65625 C6.43511688 35.0125647 5.79992126 34.36887939 5.14547729 33.70568848 C3.12411585 31.65079697 1.12463076 29.57602222 -0.875 27.5 C-2.24339943 26.10150096 -3.61317631 24.70434829 -4.984375 23.30859375 C-8.3390878 19.88780147 -11.67433289 16.4490274 -15 13 C-14.39768555 12.72365723 -13.79537109 12.44731445 -13.17480469 12.16259766 C-10.00438465 10.46776826 -7.72385773 7.93326757 -5.25 5.375 C-4.74339844 4.859375 -4.23679687 4.34375 -3.71484375 3.8125 C-2.47196098 2.54616661 -1.23534724 1.2736856 0 0 Z " fill="#1796DC" transform="translate(43,48)"/>
</svg>
